<svg width="918" height="205" viewBox="0 0 918 205" fill="none" xmlns="http://www.w3.org/2000/svg">
<path d="M251.231 162.817C218.86 162.817 203.996 147.622 202.51 124.005H228.109C229.265 134.575 233.724 143.328 251.231 143.328C262.958 143.328 270.72 136.887 270.72 127.638C270.72 118.224 265.765 114.921 248.424 112.278C218.2 108.314 205.813 99.2308 205.813 76.4389C205.813 56.2896 222.659 41.2602 248.754 41.2602C275.344 41.2602 290.869 53.1516 293.016 76.6041H268.408C266.756 65.8688 260.48 60.914 248.754 60.914C237.028 60.914 231.082 66.3643 231.082 74.2919C231.082 82.7149 234.881 86.6787 253.048 89.3213C281.62 92.9548 296.32 100.717 296.32 125.161C296.32 146.136 279.143 162.817 251.231 162.817ZM303.033 161V74.6222H326.816V161H303.033ZM314.759 62.8959C307.162 62.8959 301.216 57.2805 301.216 49.8484C301.216 42.4163 307.162 36.8009 314.759 36.8009C322.522 36.8009 328.467 42.4163 328.467 49.8484C328.467 57.2805 322.522 62.8959 314.759 62.8959ZM338.418 161V35.4796H362.201V161H338.418ZM396.269 161L364.723 74.6222H390.323L410.968 136.391L431.447 74.6222H454.57L423.19 161H396.269ZM492.04 162.817C465.945 162.817 446.952 146.466 446.952 118.885V117.563C446.952 90.3122 466.275 72.6403 491.379 72.6403C513.676 72.6403 533.495 85.6878 533.495 116.572V123.179H471.23C471.891 137.548 479.653 145.805 492.701 145.805C503.766 145.805 509.216 141.016 510.703 133.749H533.329C530.522 152.412 515.658 162.817 492.04 162.817ZM471.56 108.48H510.207C509.382 95.4321 502.775 89.1561 491.379 89.1561C480.644 89.1561 473.377 96.2579 471.56 108.48ZM538.105 161V74.6222H562.053V91.138C567.503 79.5769 575.926 73.4661 589.965 73.3009V95.5973C572.293 95.4321 562.053 101.213 562.053 117.729V161H538.105ZM616.254 161L587.517 42.9118H614.603L633.101 124.5L653.25 42.9118H676.042L697.017 124.995L716.175 42.9118H740.949L712.211 161H684.96L663.655 79.4118L642.019 161H616.254ZM776.257 162.817C750.162 162.817 731.169 146.466 731.169 118.885V117.563C731.169 90.3122 750.492 72.6403 775.596 72.6403C797.893 72.6403 817.712 85.6878 817.712 116.572V123.179H755.447C756.107 137.548 763.87 145.805 776.917 145.805C787.983 145.805 793.433 141.016 794.92 133.749H817.546C814.739 152.412 799.874 162.817 776.257 162.817ZM755.777 108.48H794.424C793.598 95.4321 786.992 89.1561 775.596 89.1561C764.861 89.1561 757.594 96.2579 755.777 108.48ZM873.851 162.817C860.473 162.817 850.729 156.21 846.27 147.292V161H822.322V35.4796H846.27V88.1652C851.059 79.9072 861.134 72.6403 873.851 72.6403C894.991 72.6403 911.507 88.3303 911.507 116.903V118.224C911.507 146.796 895.322 162.817 873.851 162.817ZM866.749 144.154C879.962 144.154 887.229 135.235 887.229 118.389V117.068C887.229 99.5611 878.641 90.9729 866.584 90.9729C854.032 90.9729 845.444 99.7262 845.444 117.068V118.389C845.444 135.731 853.702 144.154 866.749 144.154Z" fill="white"/>
<path d="M0 40.9626V86.7751L123.139 163.63V117.82L0 40.9626Z" fill="white"/>
<path d="M123.139 163.63L57.1844 204.595H0.110407V163.63L123.139 163.63Z" fill="white"/>
<path d="M0 40.9626L65.7339 0H123.029V40.9626L0 40.9626Z" fill="white"/>
</svg>
