<?xml version="1.0" standalone="no"?>
<!DOCTYPE svg PUBLIC "-//W3C//DTD SVG 20010904//EN"
 "http://www.w3.org/TR/2001/REC-SVG-20010904/DTD/svg10.dtd">
<svg version="1.0" xmlns="http://www.w3.org/2000/svg"
 width="1100.000000pt" height="1100.000000pt" viewBox="0 0 1100.000000 1100.000000"
 preserveAspectRatio="xMidYMid meet">
<metadata>
Created by potrace 1.14, written by Peter Selinger 2001-2017
</metadata>
<g transform="translate(0.000000,1100.000000) scale(0.100000,-0.100000)"
fill="#000000" stroke="none">
<path d="M5650 9860 c-14 -11 -30 -20 -37 -20 -6 0 -13 -4 -15 -8 -1 -4 -32
-27 -68 -50 -36 -23 -72 -46 -80 -52 -8 -5 -37 -24 -65 -42 -27 -18 -52 -35
-55 -38 -3 -4 -24 -17 -47 -30 -24 -13 -43 -27 -43 -32 0 -4 -5 -8 -10 -8 -6
0 -49 -26 -98 -58 -48 -32 -157 -104 -242 -160 -85 -56 -162 -106 -170 -111
-99 -67 -153 -101 -160 -101 -5 0 -14 -8 -19 -17 -6 -10 -11 -14 -11 -10 0 4
-6 3 -12 -3 -11 -10 -329 -220 -333 -220 -1 0 -80 -52 -176 -115 -96 -63 -181
-119 -189 -125 -8 -5 -39 -25 -69 -45 -29 -19 -57 -35 -61 -35 -5 0 -10 -3
-12 -7 -5 -11 -97 -73 -108 -73 -6 0 -10 -4 -10 -10 0 -5 -7 -10 -15 -10 -8 0
-15 -4 -15 -10 0 -5 -7 -10 -15 -10 -8 0 -15 -4 -15 -9 0 -5 -8 -11 -17 -15
-19 -6 -55 -27 -63 -37 -3 -3 -34 -24 -70 -47 -36 -23 -72 -47 -80 -52 -8 -6
-69 -46 -136 -89 -67 -43 -123 -85 -125 -92 -3 -8 -4 -450 -4 -983 l2 -968 24
-19 c13 -10 29 -19 36 -19 6 0 13 -4 15 -8 3 -8 143 -103 163 -111 6 -2 26
-16 45 -30 19 -15 47 -33 62 -40 15 -8 37 -22 47 -33 11 -10 22 -18 25 -18 3
0 132 -84 288 -187 156 -104 288 -190 293 -193 10 -5 125 -80 338 -222 64 -43
122 -78 127 -78 6 0 10 -4 10 -10 0 -5 7 -10 15 -10 8 0 15 -4 15 -10 0 -5 7
-10 15 -10 8 0 15 -4 15 -10 0 -5 7 -10 15 -10 8 0 15 -4 15 -8 0 -5 12 -15
28 -23 15 -8 32 -18 37 -22 6 -4 53 -35 105 -69 52 -34 101 -68 108 -75 7 -7
19 -13 27 -13 7 0 15 -3 17 -8 2 -4 89 -63 193 -132 105 -68 322 -211 483
-317 161 -106 297 -193 303 -193 5 0 12 -6 15 -14 3 -8 13 -17 22 -20 19 -7
35 -17 102 -61 25 -17 47 -33 48 -37 2 -5 9 -8 16 -8 7 0 21 -9 31 -20 10 -11
22 -20 26 -20 5 0 131 -81 280 -180 149 -99 275 -180 279 -180 4 0 13 -6 19
-14 6 -7 41 -31 76 -51 36 -21 74 -46 84 -57 11 -10 23 -18 25 -18 3 0 101
-63 217 -140 116 -77 214 -140 218 -140 3 0 22 -14 41 -30 19 -16 38 -30 43
-30 10 0 161 -103 165 -112 2 -5 8 -8 12 -8 8 0 145 -88 313 -201 32 -21 60
-39 63 -39 10 0 36 -30 27 -31 -4 -1 -200 -2 -435 -3 -280 0 -428 2 -428 9 0
7 -3 7 -8 0 -4 -6 -122 -10 -317 -10 -195 0 -313 4 -317 10 -5 7 -8 7 -8 0 0
-6 -112 -10 -315 -10 -203 0 -315 4 -315 10 0 7 -3 7 -8 0 -4 -6 -122 -10
-317 -10 -195 0 -313 4 -317 10 -5 7 -8 7 -8 0 0 -11 -160 -12 -178 -1 -6 3
-13 3 -16 -2 -4 -7 -112 -9 -141 -2 -5 1 -14 1 -20 0 -37 -8 -591 -3 -597 5
-5 7 -8 7 -8 0 0 -11 -160 -12 -178 -1 -6 3 -13 3 -16 -2 -4 -7 -112 -9 -141
-2 -5 1 -14 1 -20 0 -34 -7 -231 -3 -237 5 -5 7 -8 7 -8 0 0 -11 -519 -13
-537 -2 -7 4 -14 4 -17 -1 -3 -5 -21 -8 -40 -7 l-36 2 0 -876 0 -877 1163 1
1162 0 60 39 c33 22 62 42 65 45 3 3 21 15 40 25 19 11 37 22 40 25 8 9 69 51
74 51 3 0 58 35 123 78 65 43 154 101 198 130 44 28 85 55 91 60 5 5 21 15 34
22 13 7 29 17 34 22 6 5 43 29 81 53 39 24 75 48 80 52 6 5 42 28 80 53 39 25
72 48 73 52 2 5 8 8 13 8 5 0 77 45 160 100 83 55 155 100 160 100 5 0 9 4 9
8 0 4 15 16 33 27 64 37 202 129 209 140 5 6 8 6 8 0 0 -7 3 -7 8 0 11 16 87
65 100 65 7 0 12 5 12 10 0 6 10 14 23 19 12 5 31 16 42 25 41 33 110 76 123
76 6 0 12 5 12 10 0 6 8 14 18 18 24 10 106 65 110 75 2 4 9 7 15 7 6 0 18 6
26 14 9 8 27 21 41 28 41 22 145 92 148 101 2 4 8 7 12 7 7 0 234 146 310 200
13 10 15 130 14 985 0 960 0 975 -20 993 -11 11 -24 21 -29 23 -6 2 -95 60
-200 130 -104 69 -239 157 -300 197 -60 39 -115 75 -121 80 -5 5 -20 14 -31
21 -12 6 -27 17 -35 23 -7 7 -30 22 -51 32 -20 11 -37 23 -37 28 0 4 -4 8 -9
8 -5 0 -56 31 -113 68 -57 38 -164 109 -238 157 -74 49 -138 93 -141 98 -3 5
-10 9 -15 9 -8 1 -202 126 -214 138 -3 3 -17 11 -32 19 -16 8 -28 18 -28 23 0
4 -6 8 -13 8 -7 0 -22 8 -33 19 -11 10 -30 22 -42 25 -12 4 -22 12 -22 17 0 5
-7 9 -15 9 -8 0 -15 3 -15 8 0 4 -20 18 -45 32 -25 14 -45 28 -45 32 0 5 -6 8
-14 8 -8 0 -21 6 -28 13 -19 19 -169 117 -179 117 -5 0 -9 5 -9 10 0 6 -6 10
-13 10 -8 0 -22 9 -32 20 -10 11 -22 20 -26 20 -11 0 -163 102 -167 112 -2 5
-8 8 -12 8 -8 0 -157 96 -313 201 -32 21 -62 39 -67 39 -6 0 -10 4 -10 8 0 4
-15 16 -32 26 -18 11 -151 97 -296 193 -144 95 -267 173 -271 173 -5 0 -11 4
-13 8 -1 4 -39 31 -83 60 -44 28 -85 56 -92 62 -7 5 -14 10 -17 10 -9 0 -101
64 -104 72 -2 4 -8 8 -13 8 -5 0 -84 49 -174 110 -91 61 -170 110 -175 110 -6
0 -10 4 -10 9 0 5 -15 16 -32 25 -18 9 -44 25 -58 35 -14 11 -106 72 -205 137
-99 64 -233 152 -297 195 -65 44 -122 79 -127 79 -5 0 -11 4 -13 8 -3 8 -105
78 -133 92 -24 12 -100 66 -103 73 -2 4 -10 7 -18 7 -8 0 -14 4 -14 8 0 5
1115 8 2478 7 1362 0 2484 1 2493 3 15 3 17 77 17 878 l0 874 -1166 0 c-1143
0 -1168 -1 -1192 -20z"/>
</g>
</svg>
